<?xml version="1.0" encoding="UTF-8"?>
<svg id="Layer_1" data-name="Layer 1" xmlns="http://www.w3.org/2000/svg" viewBox="0 0 1176.46 175.61">
  <defs>
    <style>
      .cls-1 {
        fill: #0060ad;
      }

      .cls-2 {
        fill: #fffee4;
      }
    </style>
  </defs>
  <path class="cls-2" d="M501.64,174.95H34.41c-19,0-34.41-15.4-34.41-34.41V34.41C0,15.4,15.4,0,34.41,0h467.23c7.35,0,11.91,8,8.16,14.33l-5.92,9.99c-1.77,2.98-1.77,6.69,0,9.68l11.54,19.47c1.77,2.98,1.77,6.69,0,9.68l-11.55,19.48c-1.77,2.98-1.77,6.69,0,9.68l11.55,19.48c1.77,2.98,1.77,6.69,0,9.68l-11.55,19.49c-1.77,2.98-1.77,6.69,0,9.67l5.92,10c3.75,6.33-.81,14.33-8.16,14.33Z"/>
  <g>
    <g>
      <path class="cls-1" d="M352.5,28.96h-16.11c-2.35,0-4.26,1.91-4.26,4.26v22.93c0,7-6.11,9.83-13.65,9.83s-13.65-2.83-13.65-9.83v-22.93c0-2.35-1.91-4.26-4.26-4.26h-52.7c-2.35,0-4.26,1.91-4.26,4.26v37.67s0,0,0,0c-5.08-25.41-23.09-44-62.09-44-31.84,0-50.1,13.05-58.32,32.21,0,0,0,0,0,0v-25.86c0-2.36-1.92-4.28-4.28-4.28H34.15c-2.36,0-4.28,1.92-4.28,4.28v32.28c0,2.36,1.92,4.28,4.28,4.28h14.24c2.36,0,4.28,1.92,4.28,4.28v68.18c0,2.36,1.92,4.28,4.28,4.28h39.16c2.36,0,4.28-1.92,4.28-4.28v-68.18c0-2.36,1.92-4.28,4.28-4.28h14.24c.29,0,.58-.03.86-.09-1.3,5.68-1.91,11.72-1.91,17.99,0,33.59,18.24,60.81,63.66,60.81,38.63,0,56.95-18.69,62.09-44.2,0,0,0,0,0,0v1.13c0,31.25,25.33,43.07,56.58,43.07s56.58-11.82,56.58-43.07V33.22c0-2.35-1.91-4.26-4.26-4.26ZM196.65,85.54c-7.54,0-13.65-5.68-13.65-12.68s6.11-12.68,13.65-12.68,13.65,5.68,13.65,12.68-6.11,12.68-13.65,12.68Z"/>
      <path class="cls-1" d="M485.92,140.01l-21.51-30.99c-1.02-1.64-.83-3.77.45-5.2.16-.18.33-.37.5-.57,2.38-2.77,11.71-14.36,10.94-30.58-.81-17.11-12.3-27.68-15.57-30.69-12.75-11.74-27.63-12.89-32.01-13.07h-63.06c-2.39,0-4.33,1.95-4.33,4.35v109.05c0,2.4,1.94,4.35,4.33,4.35h45.39c2.39,0,4.33-1.95,4.33-4.35v-19.84c0-2.4,1.94-4.35,4.33-4.35h2.24c2.32,0,3.82,1.36,4.32,4.17l4.77,20.2c.09,2.33,2,4.17,4.32,4.17h46.88c3.39,0,5.47-3.75,3.67-6.65ZM425.77,85.54c-7.54,0-13.65-5.68-13.65-12.68s6.11-12.68,13.65-12.68,13.65,5.68,13.65,12.68-6.11,12.68-13.65,12.68Z"/>
    </g>
    <path class="cls-1" d="M481.41,35.79c0,3.8-3.08,6.87-6.87,6.87s-6.87-3.08-6.87-6.87,3.08-6.87,6.87-6.87,6.87,3.08,6.87,6.87ZM471.25,39.76h2.26v-2.47h.99l1.64,2.47h2.61l-1.95-2.85c1.01-.43,1.68-1.26,1.68-2.51v-.02c0-.8-.25-1.43-.72-1.9-.55-.56-1.41-.89-2.66-.89h-3.86v8.16ZM473.51,35.51v-1.96h1.48c.76,0,1.22.33,1.22.97v.02c0,.59-.44.97-1.21.97h-1.49Z"/>
  </g>
  <path class="cls-2" d="M537.97,175.61h603.95c19.07,0,34.54-15.46,34.54-34.54V34.54c0-19.07-15.46-34.54-34.54-34.54h-603.95c-3.36,0-6.48,1.77-8.19,4.67l-11.7,19.74c-1.78,2.99-1.77,6.72,0,9.71l11.59,19.54c1.78,2.99,1.78,6.72,0,9.71l-11.59,19.56c-1.77,2.99-1.77,6.72,0,9.71l11.59,19.56c1.77,2.99,1.77,6.72,0,9.71l-11.59,19.56c-1.77,2.99-1.77,6.72,0,9.71l11.7,19.75c1.72,2.89,4.83,4.67,8.2,4.67Z"/>
  <g>
    <path class="cls-1" d="M579.6,144.01c-6.02-3.04-10.67-7.34-13.95-12.89-3.28-5.55-4.91-11.96-4.91-19.21v-48.41c0-7.25,1.64-13.65,4.91-19.21,3.27-5.55,7.92-9.85,13.95-12.89,6.02-3.04,12.95-4.56,20.79-4.56s14.76,1.52,20.79,4.56c6.02,3.04,10.7,7.34,14.03,12.89,3.33,5.56,5,11.96,5,19.21v10.17h-30.52v-9.65c0-1.87-.38-3.48-1.14-4.82-.76-1.34-1.87-2.4-3.33-3.16-1.46-.76-3.07-1.14-4.82-1.14-2.81,0-5.06.82-6.75,2.46-1.7,1.64-2.54,3.86-2.54,6.67v47.36c0,1.87.38,3.48,1.14,4.82.76,1.35,1.87,2.4,3.33,3.16,1.46.76,3.07,1.14,4.82,1.14,2.81,0,5.06-.82,6.75-2.46,1.69-1.64,2.54-3.86,2.54-6.67v-9.65h30.52v10.17c0,7.25-1.67,13.65-5,19.21-3.33,5.55-8.01,9.85-14.03,12.89-6.02,3.04-12.95,4.56-20.79,4.56s-14.76-1.52-20.79-4.56Z"/>
    <path class="cls-1" d="M665.55,144.1c-5.91-2.98-10.47-7.16-13.68-12.54-3.22-5.38-4.82-11.63-4.82-18.77V28.94h30.34v83.32c0,1.64.35,3.07,1.05,4.3.7,1.23,1.72,2.19,3.07,2.89,1.34.7,2.83,1.05,4.47,1.05,2.57,0,4.65-.73,6.23-2.19,1.58-1.46,2.37-3.48,2.37-6.05V28.94h30.34v83.84c0,7.13-1.61,13.39-4.82,18.77-3.22,5.38-7.78,9.56-13.68,12.54-5.91,2.98-12.72,4.47-20.43,4.47s-14.53-1.49-20.44-4.47Z"/>
    <path class="cls-1" d="M733.17,28.94h30.52v117.52h-30.52V28.94ZM756.32,82.09h13.68c4.09,0,7.25-1.08,9.47-3.25,2.22-2.16,3.33-5.23,3.33-9.21s-1.11-7.07-3.33-9.3c-2.22-2.22-5.38-3.33-9.47-3.33h-13.68v-28.07h17.01c8.42,0,15.61,1.58,21.58,4.74,5.96,3.16,10.52,7.72,13.68,13.68s4.74,13.16,4.74,21.57-1.55,15.82-4.65,21.84c-3.1,6.02-7.66,10.61-13.68,13.77-6.02,3.16-13.24,4.74-21.66,4.74h-17.01v-27.19ZM765.62,102.61l28.24-6.31,22.28,50.17h-35.61l-14.91-43.85Z"/>
    <path class="cls-1" d="M819.99,28.94h30.52v117.52h-30.52V28.94Z"/>
    <path class="cls-1" d="M859.11,28.94h74.2v28.07h-74.2v-28.07ZM880.86,44.55h30.52v101.91h-30.52V44.55Z"/>
    <path class="cls-1" d="M941.55,28.94h30.52v117.52h-30.52V28.94Z"/>
    <path class="cls-1" d="M981.36,28.94h30.52v117.52h-30.52V28.94ZM1004.52,119.98h15.96c2.69,0,4.88-.96,6.58-2.89,1.69-1.93,2.54-4.41,2.54-7.45s-.85-5.5-2.54-7.37c-1.7-1.87-3.89-2.81-6.58-2.81h-15.96v-24.21h13.16c2.69,0,4.88-.93,6.58-2.81,1.69-1.87,2.54-4.27,2.54-7.19s-.85-5.14-2.54-7.02c-1.7-1.87-3.89-2.81-6.58-2.81h-13.16v-26.49h21.93c9.24,0,16.69,2.84,22.36,8.51,5.67,5.67,8.51,13.07,8.51,22.19,0,7.25-1.43,13.24-4.3,17.98-2.87,4.74-6.52,7.57-10.96,8.51v1.58c5.5,1.29,9.88,4.42,13.16,9.38,3.27,4.97,4.91,11.2,4.91,18.68,0,9.12-2.84,16.52-8.51,22.19s-13.13,8.51-22.36,8.51h-24.73v-26.49Z"/>
    <path class="cls-1" d="M1080.12,28.94h42.97l23.5,117.52h-33.5l-11.23-87h-1.75l-10.88,87h-32.45l23.33-117.52ZM1082.75,99.98h37.01l5.09,27.19h-45.96l3.86-27.19Z"/>
  </g>
</svg>